<?xml version="1.0" encoding="UTF-8"?>
<!-- Generator: visioncortex VTracer 0.6.4 -->
<svg version="1.1" xmlns="http://www.w3.org/2000/svg" width="512" height="512">
<path d="M0 0 C1.09 -0 2.17 -0.01 3.29 -0.01 C6.92 -0.02 10.56 -0.03 14.19 -0.03 C16.8 -0.04 19.4 -0.04 22.01 -0.05 C29.83 -0.07 37.65 -0.08 45.48 -0.09 C49.17 -0.09 52.86 -0.1 56.56 -0.1 C68.85 -0.12 81.15 -0.13 93.44 -0.14 C96.63 -0.14 99.81 -0.15 103 -0.15 C104.19 -0.15 104.19 -0.15 105.4 -0.15 C118.2 -0.16 131.01 -0.18 143.81 -0.22 C156.98 -0.25 170.16 -0.27 183.33 -0.27 C190.72 -0.27 198.1 -0.28 205.49 -0.31 C211.78 -0.33 218.08 -0.34 224.37 -0.33 C227.57 -0.32 230.78 -0.33 233.98 -0.34 C274.26 -0.55 308.56 11.25 338.13 39.15 C338.86 39.82 339.6 40.49 340.36 41.19 C362.09 61.76 378.01 94.37 379.22 124.52 C379.26 127.35 379.27 130.19 379.27 133.02 C379.28 134.11 379.28 135.19 379.28 136.31 C379.29 139.94 379.3 143.58 379.3 147.21 C379.31 149.82 379.32 152.42 379.32 155.03 C379.34 162.85 379.35 170.68 379.36 178.5 C379.37 182.19 379.37 185.89 379.38 189.58 C379.39 201.87 379.41 214.17 379.41 226.46 C379.42 229.65 379.42 232.84 379.42 236.02 C379.42 236.82 379.42 237.61 379.42 238.42 C379.43 251.23 379.46 264.03 379.49 276.83 C379.52 290 379.54 303.18 379.54 316.36 C379.54 323.74 379.55 331.12 379.58 338.51 C379.6 344.8 379.61 351.1 379.6 357.39 C379.59 360.6 379.6 363.8 379.62 367 C379.83 409.26 366.59 444.35 336.71 474.58 C307.75 503.36 270.59 512.63 230.93 512.55 C228.32 512.56 225.71 512.56 223.1 512.57 C216.79 512.59 210.48 512.59 204.16 512.58 C199.02 512.58 193.88 512.58 188.75 512.59 C187.64 512.59 187.64 512.59 186.52 512.59 C185.02 512.59 183.53 512.59 182.03 512.59 C168.06 512.61 154.09 512.6 140.11 512.59 C127.37 512.58 114.64 512.59 101.9 512.62 C88.77 512.64 75.64 512.65 62.51 512.65 C55.16 512.64 47.81 512.64 40.46 512.66 C33.54 512.68 26.62 512.67 19.71 512.65 C17.18 512.65 14.66 512.65 12.14 512.66 C-29.55 512.83 -63.58 499.93 -93.87 471.15 C-94.51 470.58 -95.14 470.01 -95.8 469.42 C-110.49 455.77 -120.5 436.14 -126.87 417.4 C-127.27 416.23 -127.27 416.23 -127.68 415.04 C-133.04 398.15 -133.31 381.5 -133.28 363.95 C-133.28 361.34 -133.29 358.73 -133.3 356.12 C-133.32 349.81 -133.32 343.5 -133.31 337.18 C-133.31 332.05 -133.31 326.91 -133.32 321.77 C-133.32 321.03 -133.32 320.3 -133.32 319.54 C-133.32 318.04 -133.32 316.55 -133.32 315.05 C-133.34 301.08 -133.33 287.11 -133.32 273.13 C-133.31 260.4 -133.32 247.66 -133.35 234.92 C-133.37 221.79 -133.38 208.66 -133.37 195.53 C-133.37 188.18 -133.37 180.83 -133.39 173.48 C-133.41 166.56 -133.4 159.64 -133.38 152.73 C-133.38 150.2 -133.38 147.68 -133.39 145.16 C-133.55 104.94 -121.73 70.67 -93.87 41.15 C-93.2 40.41 -92.53 39.67 -91.84 38.91 C-68.67 14.45 -33.51 -0.01 0 0 Z " fill="#0E8F8F" transform="translate(132.87478637695313,-0.1471710205078125)"/>
<path d="M0 0 C6.5 3.24 11.73 7.34 14.71 14.11 C16.72 20.99 16.04 27.8 12.73 34.13 C8.46 41.2 1.9 47.01 -3.9 52.84 C-5.09 54.05 -5.09 54.05 -6.31 55.28 C-8.92 57.91 -11.53 60.54 -14.15 63.17 C-15.05 64.08 -15.94 64.98 -16.87 65.91 C-20.64 69.71 -24.42 73.5 -28.2 77.29 C-33.59 82.69 -38.96 88.1 -44.33 93.53 C-48.58 97.82 -52.84 102.1 -57.11 106.38 C-58.92 108.19 -60.72 110 -62.52 111.83 C-65.03 114.37 -67.56 116.9 -70.1 119.43 C-70.83 120.18 -71.56 120.93 -72.32 121.7 C-80.26 129.55 -88.27 132.52 -99.36 132.55 C-100.7 132.56 -100.7 132.56 -102.07 132.57 C-105.03 132.59 -107.99 132.6 -110.95 132.61 C-112.46 132.62 -112.46 132.62 -114.01 132.63 C-119.37 132.65 -124.73 132.66 -130.09 132.67 C-135.62 132.68 -141.14 132.72 -146.66 132.76 C-150.92 132.78 -155.18 132.79 -159.43 132.79 C-161.47 132.8 -163.51 132.81 -165.54 132.83 C-168.4 132.85 -171.26 132.85 -174.11 132.84 C-174.95 132.86 -175.78 132.87 -176.64 132.88 C-184.13 132.82 -189.74 130.28 -195.94 126.19 C-201.05 120.84 -204.1 113.12 -203.96 105.69 C-202.86 98.14 -198.42 92.57 -192.79 87.75 C-187.64 84.47 -183.69 84.19 -177.78 85.33 C-176.4 85.57 -175.02 85.81 -173.64 86.04 C-172.91 86.16 -172.18 86.29 -171.43 86.41 C-146.39 90.35 -116.6 93.32 -94.99 77.78 C-72.43 60.29 -53.1 37.98 -34.89 16.11 C-34.2 15.29 -33.51 14.48 -32.8 13.63 C-31.53 12.12 -30.28 10.6 -29.05 9.06 C-21.41 -0.03 -11.4 -4.57 0 0 Z " fill="#FDFEFE" transform="translate(296.625,238.625)"/>
<path d="M0 0 C10.25 8.88 17.26 19.4 20.39 32.7 C20.56 33.31 20.73 33.93 20.9 34.56 C24.23 49.2 20.98 63.55 13.9 76.4 C12.5 78.62 11.02 80.66 9.39 82.7 C8.87 83.38 8.35 84.07 7.81 84.77 C-0.39 94.87 -12.87 101.98 -25.61 104.7 C-42.25 106.05 -58.76 104.09 -72.34 93.59 C-74.86 91.38 -77.25 89.09 -79.61 86.7 C-80.26 86.08 -80.91 85.45 -81.58 84.8 C-91.51 74.5 -95.61 59.72 -95.99 45.7 C-95.55 29.88 -90.05 16.46 -79.06 4.98 C-57.37 -15.25 -23.98 -19.33 0 0 Z " fill="#FDFEFE" transform="translate(399.6103515625,140.29833984375)"/>
<path d="M0 0 C6.35 2.72 9.52 8.45 12.51 14.42 C13.32 21.48 12.41 27.43 8.51 33.42 C3.51 39.07 -1.75 41.38 -9.24 41.92 C-15.37 41.79 -19.79 39.21 -24.49 35.42 C-29.8 29.59 -29.84 23.36 -29.77 15.81 C-29.27 9.7 -26.2 6.97 -21.87 3.11 C-15.68 -2.04 -7.71 -1.79 0 0 Z " fill="#30C4B6" transform="translate(371.4921875,166.578125)"/>
</svg>
